<mxfile host="app.diagrams.net" modified="2023-06-29T14:34:14.616Z" agent="Mozilla/5.0 (Macintosh; Intel Mac OS X 10_15_7) AppleWebKit/537.36 (KHTML, like Gecko) Chrome/114.0.0.0 Safari/537.36" etag="dtFjSPhx2qpn5jkbmQsI" version="21.5.1" type="device">
  <diagram name="Page-1" id="XWLYOuRcS6aVi-iuWTuV">
    <mxGraphModel dx="2368" dy="1130" grid="1" gridSize="10" guides="1" tooltips="1" connect="1" arrows="1" fold="1" page="0" pageScale="1" pageWidth="850" pageHeight="1100" math="0" shadow="0">
      <root>
        <mxCell id="0" />
        <mxCell id="1" parent="0" />
        <mxCell id="7QjSQF_c3DvpzYSd4vkf-1" value="Realityshow" style="whiteSpace=wrap;html=1;align=center;" vertex="1" parent="1">
          <mxGeometry x="150" y="220" width="100" height="40" as="geometry" />
        </mxCell>
        <mxCell id="7QjSQF_c3DvpzYSd4vkf-4" value="RID" style="ellipse;whiteSpace=wrap;html=1;align=center;fontStyle=4;" vertex="1" parent="1">
          <mxGeometry x="-40" y="210" width="100" height="40" as="geometry" />
        </mxCell>
        <mxCell id="7QjSQF_c3DvpzYSd4vkf-5" value="Basic&amp;nbsp;&lt;br&gt;Infromation&lt;br&gt;" style="ellipse;shape=doubleEllipse;margin=3;whiteSpace=wrap;html=1;align=center;" vertex="1" parent="1">
          <mxGeometry y="110" width="100" height="50" as="geometry" />
        </mxCell>
        <mxCell id="7QjSQF_c3DvpzYSd4vkf-6" value="Participant&amp;nbsp;&lt;br&gt;Name&lt;br&gt;" style="ellipse;whiteSpace=wrap;html=1;align=center;" vertex="1" parent="1">
          <mxGeometry x="150" y="100" width="100" height="40" as="geometry" />
        </mxCell>
        <mxCell id="7QjSQF_c3DvpzYSd4vkf-7" value="" style="endArrow=none;html=1;rounded=0;exitX=0.5;exitY=1;exitDx=0;exitDy=0;" edge="1" parent="1" source="7QjSQF_c3DvpzYSd4vkf-6" target="7QjSQF_c3DvpzYSd4vkf-1">
          <mxGeometry relative="1" as="geometry">
            <mxPoint x="340" y="290" as="sourcePoint" />
            <mxPoint x="500" y="290" as="targetPoint" />
          </mxGeometry>
        </mxCell>
        <mxCell id="7QjSQF_c3DvpzYSd4vkf-8" value="" style="endArrow=none;html=1;rounded=0;exitX=1;exitY=1;exitDx=0;exitDy=0;entryX=0;entryY=0;entryDx=0;entryDy=0;" edge="1" parent="1" source="7QjSQF_c3DvpzYSd4vkf-5" target="7QjSQF_c3DvpzYSd4vkf-1">
          <mxGeometry relative="1" as="geometry">
            <mxPoint x="340" y="290" as="sourcePoint" />
            <mxPoint x="500" y="290" as="targetPoint" />
          </mxGeometry>
        </mxCell>
        <mxCell id="7QjSQF_c3DvpzYSd4vkf-9" value="" style="endArrow=none;html=1;rounded=0;exitX=1;exitY=0.5;exitDx=0;exitDy=0;entryX=0;entryY=0.5;entryDx=0;entryDy=0;" edge="1" parent="1" source="7QjSQF_c3DvpzYSd4vkf-4" target="7QjSQF_c3DvpzYSd4vkf-1">
          <mxGeometry relative="1" as="geometry">
            <mxPoint x="340" y="290" as="sourcePoint" />
            <mxPoint x="500" y="290" as="targetPoint" />
          </mxGeometry>
        </mxCell>
        <mxCell id="7QjSQF_c3DvpzYSd4vkf-10" value="Product&lt;br&gt;By" style="shape=rhombus;perimeter=rhombusPerimeter;whiteSpace=wrap;html=1;align=center;" vertex="1" parent="1">
          <mxGeometry x="500" y="210" width="120" height="60" as="geometry" />
        </mxCell>
        <mxCell id="7QjSQF_c3DvpzYSd4vkf-11" value="" style="endArrow=none;html=1;rounded=0;exitX=1;exitY=0.5;exitDx=0;exitDy=0;entryX=0;entryY=0.5;entryDx=0;entryDy=0;" edge="1" parent="1" source="7QjSQF_c3DvpzYSd4vkf-1" target="7QjSQF_c3DvpzYSd4vkf-10">
          <mxGeometry relative="1" as="geometry">
            <mxPoint x="340" y="290" as="sourcePoint" />
            <mxPoint x="500" y="290" as="targetPoint" />
          </mxGeometry>
        </mxCell>
        <mxCell id="7QjSQF_c3DvpzYSd4vkf-12" value="producer" style="whiteSpace=wrap;html=1;align=center;" vertex="1" parent="1">
          <mxGeometry x="900" y="220" width="100" height="40" as="geometry" />
        </mxCell>
        <mxCell id="7QjSQF_c3DvpzYSd4vkf-13" value="" style="endArrow=none;html=1;rounded=0;exitX=1;exitY=0.5;exitDx=0;exitDy=0;entryX=0;entryY=0.5;entryDx=0;entryDy=0;" edge="1" parent="1" source="7QjSQF_c3DvpzYSd4vkf-10" target="7QjSQF_c3DvpzYSd4vkf-12">
          <mxGeometry relative="1" as="geometry">
            <mxPoint x="640" y="290" as="sourcePoint" />
            <mxPoint x="800" y="290" as="targetPoint" />
          </mxGeometry>
        </mxCell>
        <mxCell id="7QjSQF_c3DvpzYSd4vkf-14" value="Producer&lt;br&gt;ID" style="ellipse;whiteSpace=wrap;html=1;align=center;fontStyle=4;" vertex="1" parent="1">
          <mxGeometry x="850" y="90" width="100" height="40" as="geometry" />
        </mxCell>
        <mxCell id="7QjSQF_c3DvpzYSd4vkf-15" value="Country" style="ellipse;whiteSpace=wrap;html=1;align=center;" vertex="1" parent="1">
          <mxGeometry x="1030" y="115" width="100" height="40" as="geometry" />
        </mxCell>
        <mxCell id="7QjSQF_c3DvpzYSd4vkf-16" value="Company&amp;nbsp;&lt;br&gt;Name" style="ellipse;whiteSpace=wrap;html=1;align=center;" vertex="1" parent="1">
          <mxGeometry x="1100" y="210" width="100" height="40" as="geometry" />
        </mxCell>
        <mxCell id="7QjSQF_c3DvpzYSd4vkf-17" value="" style="endArrow=none;html=1;rounded=0;entryX=0;entryY=0.5;entryDx=0;entryDy=0;exitX=1;exitY=0.5;exitDx=0;exitDy=0;" edge="1" parent="1" source="7QjSQF_c3DvpzYSd4vkf-12" target="7QjSQF_c3DvpzYSd4vkf-16">
          <mxGeometry relative="1" as="geometry">
            <mxPoint x="840" y="290" as="sourcePoint" />
            <mxPoint x="1000" y="290" as="targetPoint" />
          </mxGeometry>
        </mxCell>
        <mxCell id="7QjSQF_c3DvpzYSd4vkf-18" value="" style="endArrow=none;html=1;rounded=0;entryX=0.06;entryY=0.875;entryDx=0;entryDy=0;entryPerimeter=0;exitX=0.75;exitY=0;exitDx=0;exitDy=0;" edge="1" parent="1" source="7QjSQF_c3DvpzYSd4vkf-12" target="7QjSQF_c3DvpzYSd4vkf-15">
          <mxGeometry relative="1" as="geometry">
            <mxPoint x="840" y="290" as="sourcePoint" />
            <mxPoint x="1000" y="290" as="targetPoint" />
          </mxGeometry>
        </mxCell>
        <mxCell id="7QjSQF_c3DvpzYSd4vkf-19" value="" style="endArrow=none;html=1;rounded=0;exitX=0.58;exitY=1;exitDx=0;exitDy=0;exitPerimeter=0;entryX=0.25;entryY=0;entryDx=0;entryDy=0;" edge="1" parent="1" source="7QjSQF_c3DvpzYSd4vkf-14" target="7QjSQF_c3DvpzYSd4vkf-12">
          <mxGeometry relative="1" as="geometry">
            <mxPoint x="840" y="290" as="sourcePoint" />
            <mxPoint x="1000" y="290" as="targetPoint" />
          </mxGeometry>
        </mxCell>
        <mxCell id="7QjSQF_c3DvpzYSd4vkf-20" value="Broadcast&lt;br&gt;By" style="shape=rhombus;perimeter=rhombusPerimeter;whiteSpace=wrap;html=1;align=center;" vertex="1" parent="1">
          <mxGeometry x="120" y="450" width="120" height="60" as="geometry" />
        </mxCell>
        <mxCell id="7QjSQF_c3DvpzYSd4vkf-21" value="" style="endArrow=none;html=1;rounded=0;entryX=0.5;entryY=0;entryDx=0;entryDy=0;" edge="1" parent="1" target="7QjSQF_c3DvpzYSd4vkf-20">
          <mxGeometry relative="1" as="geometry">
            <mxPoint x="180" y="260" as="sourcePoint" />
            <mxPoint x="340" y="450" as="targetPoint" />
          </mxGeometry>
        </mxCell>
        <mxCell id="7QjSQF_c3DvpzYSd4vkf-22" value="Tv Channel" style="whiteSpace=wrap;html=1;align=center;" vertex="1" parent="1">
          <mxGeometry x="130" y="680" width="100" height="40" as="geometry" />
        </mxCell>
        <mxCell id="7QjSQF_c3DvpzYSd4vkf-23" value="" style="endArrow=none;html=1;rounded=0;exitX=0.5;exitY=1;exitDx=0;exitDy=0;entryX=0.5;entryY=0;entryDx=0;entryDy=0;" edge="1" parent="1" source="7QjSQF_c3DvpzYSd4vkf-20" target="7QjSQF_c3DvpzYSd4vkf-22">
          <mxGeometry relative="1" as="geometry">
            <mxPoint x="330" y="640" as="sourcePoint" />
            <mxPoint x="490" y="640" as="targetPoint" />
          </mxGeometry>
        </mxCell>
        <mxCell id="7QjSQF_c3DvpzYSd4vkf-24" value="ID" style="ellipse;whiteSpace=wrap;html=1;align=center;fontStyle=4;" vertex="1" parent="1">
          <mxGeometry x="-60" y="680" width="100" height="40" as="geometry" />
        </mxCell>
        <mxCell id="7QjSQF_c3DvpzYSd4vkf-25" value="Start Year" style="ellipse;whiteSpace=wrap;html=1;align=center;" vertex="1" parent="1">
          <mxGeometry x="120" y="810" width="100" height="40" as="geometry" />
        </mxCell>
        <mxCell id="7QjSQF_c3DvpzYSd4vkf-26" value="Name" style="ellipse;whiteSpace=wrap;html=1;align=center;" vertex="1" parent="1">
          <mxGeometry x="-20" y="780" width="100" height="40" as="geometry" />
        </mxCell>
        <mxCell id="7QjSQF_c3DvpzYSd4vkf-27" value="Head Office" style="ellipse;whiteSpace=wrap;html=1;align=center;" vertex="1" parent="1">
          <mxGeometry x="270" y="760" width="100" height="40" as="geometry" />
        </mxCell>
        <mxCell id="7QjSQF_c3DvpzYSd4vkf-28" value="" style="endArrow=none;html=1;rounded=0;entryX=0.082;entryY=0.139;entryDx=0;entryDy=0;entryPerimeter=0;exitX=1;exitY=1;exitDx=0;exitDy=0;" edge="1" parent="1" source="7QjSQF_c3DvpzYSd4vkf-22" target="7QjSQF_c3DvpzYSd4vkf-27">
          <mxGeometry relative="1" as="geometry">
            <mxPoint x="170" y="730" as="sourcePoint" />
            <mxPoint x="330" y="730" as="targetPoint" />
          </mxGeometry>
        </mxCell>
        <mxCell id="7QjSQF_c3DvpzYSd4vkf-29" value="" style="endArrow=none;html=1;rounded=0;exitX=0.5;exitY=0;exitDx=0;exitDy=0;entryX=0.4;entryY=0.98;entryDx=0;entryDy=0;entryPerimeter=0;" edge="1" parent="1" source="7QjSQF_c3DvpzYSd4vkf-25" target="7QjSQF_c3DvpzYSd4vkf-22">
          <mxGeometry relative="1" as="geometry">
            <mxPoint x="170" y="730" as="sourcePoint" />
            <mxPoint x="330" y="730" as="targetPoint" />
          </mxGeometry>
        </mxCell>
        <mxCell id="7QjSQF_c3DvpzYSd4vkf-30" value="" style="endArrow=none;html=1;rounded=0;exitX=0.955;exitY=0.275;exitDx=0;exitDy=0;exitPerimeter=0;entryX=0;entryY=1;entryDx=0;entryDy=0;" edge="1" parent="1" source="7QjSQF_c3DvpzYSd4vkf-26" target="7QjSQF_c3DvpzYSd4vkf-22">
          <mxGeometry relative="1" as="geometry">
            <mxPoint x="170" y="730" as="sourcePoint" />
            <mxPoint x="330" y="730" as="targetPoint" />
          </mxGeometry>
        </mxCell>
        <mxCell id="7QjSQF_c3DvpzYSd4vkf-31" value="" style="endArrow=none;html=1;rounded=0;exitX=1;exitY=0.5;exitDx=0;exitDy=0;entryX=0;entryY=0.5;entryDx=0;entryDy=0;" edge="1" parent="1" source="7QjSQF_c3DvpzYSd4vkf-24" target="7QjSQF_c3DvpzYSd4vkf-22">
          <mxGeometry relative="1" as="geometry">
            <mxPoint x="170" y="730" as="sourcePoint" />
            <mxPoint x="330" y="730" as="targetPoint" />
          </mxGeometry>
        </mxCell>
        <mxCell id="7QjSQF_c3DvpzYSd4vkf-32" value="Relationship" style="shape=rhombus;perimeter=rhombusPerimeter;whiteSpace=wrap;html=1;align=center;" vertex="1" parent="1">
          <mxGeometry x="460" y="420" width="120" height="50" as="geometry" />
        </mxCell>
        <mxCell id="7QjSQF_c3DvpzYSd4vkf-33" value="" style="endArrow=none;html=1;rounded=0;exitX=0.75;exitY=1;exitDx=0;exitDy=0;entryX=0;entryY=0.5;entryDx=0;entryDy=0;" edge="1" parent="1" source="7QjSQF_c3DvpzYSd4vkf-1" target="7QjSQF_c3DvpzYSd4vkf-32">
          <mxGeometry relative="1" as="geometry">
            <mxPoint x="430" y="420" as="sourcePoint" />
            <mxPoint x="590" y="420" as="targetPoint" />
            <Array as="points">
              <mxPoint x="225" y="440" />
            </Array>
          </mxGeometry>
        </mxCell>
        <mxCell id="7QjSQF_c3DvpzYSd4vkf-34" value="User" style="whiteSpace=wrap;html=1;align=center;" vertex="1" parent="1">
          <mxGeometry x="780" y="425" width="100" height="40" as="geometry" />
        </mxCell>
        <mxCell id="7QjSQF_c3DvpzYSd4vkf-35" value="" style="endArrow=none;html=1;rounded=0;exitX=1;exitY=0.5;exitDx=0;exitDy=0;entryX=0;entryY=0.5;entryDx=0;entryDy=0;" edge="1" parent="1" source="7QjSQF_c3DvpzYSd4vkf-32" target="7QjSQF_c3DvpzYSd4vkf-34">
          <mxGeometry relative="1" as="geometry">
            <mxPoint x="640" y="420" as="sourcePoint" />
            <mxPoint x="800" y="420" as="targetPoint" />
          </mxGeometry>
        </mxCell>
        <mxCell id="7QjSQF_c3DvpzYSd4vkf-36" value="User ID" style="ellipse;whiteSpace=wrap;html=1;align=center;fontStyle=4;" vertex="1" parent="1">
          <mxGeometry x="670" y="520" width="100" height="40" as="geometry" />
        </mxCell>
        <mxCell id="7QjSQF_c3DvpzYSd4vkf-37" value="Age" style="ellipse;whiteSpace=wrap;html=1;align=center;" vertex="1" parent="1">
          <mxGeometry x="980" y="400" width="100" height="40" as="geometry" />
        </mxCell>
        <mxCell id="7QjSQF_c3DvpzYSd4vkf-38" value="Password" style="ellipse;whiteSpace=wrap;html=1;align=center;" vertex="1" parent="1">
          <mxGeometry x="950" y="520" width="100" height="40" as="geometry" />
        </mxCell>
        <mxCell id="7QjSQF_c3DvpzYSd4vkf-39" value="Username" style="ellipse;whiteSpace=wrap;html=1;align=center;" vertex="1" parent="1">
          <mxGeometry x="800" y="550" width="100" height="40" as="geometry" />
        </mxCell>
        <mxCell id="7QjSQF_c3DvpzYSd4vkf-40" value="" style="endArrow=none;html=1;rounded=0;entryX=0;entryY=0.5;entryDx=0;entryDy=0;exitX=1;exitY=0.25;exitDx=0;exitDy=0;" edge="1" parent="1" source="7QjSQF_c3DvpzYSd4vkf-34" target="7QjSQF_c3DvpzYSd4vkf-37">
          <mxGeometry relative="1" as="geometry">
            <mxPoint x="710" y="420" as="sourcePoint" />
            <mxPoint x="870" y="420" as="targetPoint" />
          </mxGeometry>
        </mxCell>
        <mxCell id="7QjSQF_c3DvpzYSd4vkf-41" value="" style="endArrow=none;html=1;rounded=0;entryX=0.083;entryY=0.277;entryDx=0;entryDy=0;entryPerimeter=0;exitX=1;exitY=1;exitDx=0;exitDy=0;" edge="1" parent="1" source="7QjSQF_c3DvpzYSd4vkf-34" target="7QjSQF_c3DvpzYSd4vkf-38">
          <mxGeometry relative="1" as="geometry">
            <mxPoint x="710" y="420" as="sourcePoint" />
            <mxPoint x="870" y="420" as="targetPoint" />
          </mxGeometry>
        </mxCell>
        <mxCell id="7QjSQF_c3DvpzYSd4vkf-42" value="" style="endArrow=none;html=1;rounded=0;exitX=0.4;exitY=-0.056;exitDx=0;exitDy=0;exitPerimeter=0;entryX=0.5;entryY=1;entryDx=0;entryDy=0;" edge="1" parent="1" source="7QjSQF_c3DvpzYSd4vkf-39" target="7QjSQF_c3DvpzYSd4vkf-34">
          <mxGeometry relative="1" as="geometry">
            <mxPoint x="710" y="420" as="sourcePoint" />
            <mxPoint x="870" y="420" as="targetPoint" />
          </mxGeometry>
        </mxCell>
        <mxCell id="7QjSQF_c3DvpzYSd4vkf-43" value="" style="endArrow=none;html=1;rounded=0;exitX=1;exitY=0;exitDx=0;exitDy=0;entryX=0.083;entryY=0.985;entryDx=0;entryDy=0;entryPerimeter=0;" edge="1" parent="1" source="7QjSQF_c3DvpzYSd4vkf-36" target="7QjSQF_c3DvpzYSd4vkf-34">
          <mxGeometry relative="1" as="geometry">
            <mxPoint x="710" y="420" as="sourcePoint" />
            <mxPoint x="870" y="420" as="targetPoint" />
          </mxGeometry>
        </mxCell>
      </root>
    </mxGraphModel>
  </diagram>
</mxfile>
